<svg version="1.0" xmlns="http://www.w3.org/2000/svg" width="20.000000ptpx" height="21.000000ptpx" viewBox="0 0 20.000000 21.000000" preserveAspectRatio="xMidYMid meet" transform="rotate(0) scale(1, 1)">

<g transform="translate(0.000000,21.000000) scale(0.100000,-0.100000)" fill="#fda31c" stroke="none">
<path d="M82 165 c-7 -14 -20 -25 -31 -25 -27 0 -37 -21 -18 -35 10 -7 17 -26&#10;17 -44 0 -33 8 -39 28 -19 9 9 18 9 37 0 35 -16 35 -16 35 19 0 18 7 37 17 44&#10;19 14 9 35 -18 35 -11 0 -24 11 -31 25 -6 14 -14 25 -18 25 -4 0 -12 -11 -18&#10;-25z"/>
</g>
</svg>